<svg width="1920" height="1641" viewBox="0 0 1920 1641" fill="none" xmlns="http://www.w3.org/2000/svg">
<g style="mix-blend-mode:screen">
<path d="M6748.8 903.9C6724 894.4 6711.7 889.1 6686.4 890.7C6666.5 892 6644.1 900.4 6624.4 898.2C6577.2 892.8 6558.4 851.5 6527.3 821.5C6443.6 741 6392.2 819.8 6330.3 879.4C6246.1 960.6 6187.1 869.8 6135 804.5C6107.9 770.5 6078.5 756.9 6042.3 735.5C6009.4 716.1 5985.1 684.3 5953.4 664C5913.1 638.1 5877.5 644 5832.7 647.1C5786.1 650.3 5757.1 625 5712.8 616.7C5673.9 609.4 5625.8 617.7 5588.5 601.4C5559.2 588.5 5531.3 537 5495.6 549.8C5462.6 561.7 5434.7 614.8 5418.5 641.9C5395.4 680.6 5377 720.9 5359.8 762.4C5328.7 837.7 5306.9 923.3 5252.5 985.8C5211.2 1033.2 5184.2 1020.4 5145.3 979.2C5117 949.2 5088.6 921.8 5062.5 889.7C5041.8 864.2 5008.8 811.8 4972.3 807.9C4937 804.1 4903.4 863.6 4886.4 889.3C4794 1028.8 4729.8 1189.4 4682.2 1348.9C4656.3 1435.6 4637.7 1528.2 4604.3 1612.4C4590.6 1646.8 4572 1695.9 4530 1695.5C4509.8 1695.3 4498.3 1680.7 4478.7 1677.4C4458.8 1674.1 4434.3 1688.2 4415.3 1693.5C4388.2 1701.1 4384.5 1691.9 4356.1 1690.8C4336.9 1690.1 4314.3 1700.4 4295.8 1706.8C4261.7 1718.7 4223.9 1760.1 4185.9 1738.6C4153.2 1720.1 4134.2 1664.4 4103.3 1640.8C4066.4 1612.6 4022.9 1616.5 3987 1646.2C3958.9 1669.4 3941.1 1712.5 3927 1746.9C3917.9 1769.1 3911 1796 3898.6 1816.4C3892.7 1826 3866.7 1859 3856.2 1859.8C3825.3 1862 3802.8 1786.8 3795.8 1766.4C3781.9 1725.5 3768 1684.6 3753.7 1643.8C3741.6 1609.2 3726 1541.3 3691.6 1519.7C3678 1511.2 3662.3 1518.1 3644.2 1520.7C3613.6 1525.1 3606.3 1523.1 3579.1 1513.3C3537.1 1498.2 3511.4 1521.9 3472.9 1537.3C3418.8 1558.8 3405.1 1516.8 3357.4 1504.4C3279 1484 3219.7 1608.6 3161 1638.8C3141.6 1648.8 3133 1648.5 3111.6 1629.5C3095.3 1615 3085.9 1588.7 3075.4 1569.1C3056.7 1533.9 3038.9 1498 3022.6 1461.7C2954.1 1308.9 2876.9 1161.1 2801.2 1011.6C2763.4 937 2709.6 871.6 2674.2 796.5C2636.3 715.8 2611.4 630.1 2573.6 549.3C2538.3 474 2471.7 419.5 2410.9 364.8C2345.9 306.3 2321.8 225.4 2290.6 145.7C2268.4 89 2230 -50.3 2157.2 -49.6C2119 -49.3 2080.5 -19.6 2054.7 6.1C2023.4 37.3 1984.9 58.7 1954 90.4C1925.2 119.9 1907.3 158.2 1875.4 185.5C1862.6 196.4 1843 212.2 1824.8 211.7C1808.6 211.2 1788 195.1 1771.4 189.9C1701.2 168.1 1605.6 219.9 1566.7 277.2C1534.5 324.6 1474.1 476.7 1402.8 441C1379.5 429.4 1374.3 410.7 1347.5 404.8C1320.9 399 1312.7 408.6 1287.7 420.3C1274.4 426.6 1256.9 437.1 1242.5 438.6C1211.6 441.7 1203 428.6 1172.1 443.7C1134.8 462 1108.2 492.5 1077.3 519.6C1065.8 529.7 1047.5 549.9 1033.6 551.2C1015.8 553 986.7 531.8 970.4 524.8C924.8 505.1 900.9 512.1 866.1 547.7C835.7 578.8 805.9 622.9 787.7 662.2C750 743.6 735.3 836.5 703.6 920.2C691.3 952.7 676.7 996.2 652.3 1019.9C610.1 1061 574.7 1021.6 543 987.8C528.9 972.8 516.4 954.2 500.8 940.9C487.1 929.3 469.7 925.1 454.4 915.6C439.1 906.1 426.5 891.3 412.2 880.3C388 861.8 382.5 851.1 359 863.3C343.6 871.3 328.8 887.6 314.1 897.7C293.8 911.6 268 916.4 248.8 929.9C214 954.4 197.8 997.8 182 1035.1C149.2 1112.5 124.9 1187.1 78 1257.3C42.4 1166.3 25 1066.2 -15.4 978.2C-26.3 954.4 -32.6 929.1 -53.2 915C-75.1 900 -102.3 902.8 -126.7 908.2C-179.3 919.9 -206.2 957.4 -250.3 982.4C-268.8 992.9 -301.5 1002.1 -322.6 993.9C-344.7 985.3 -353.4 957.5 -365.4 934.7C-386.9 894.1 -403.8 851.3 -426.2 811.2C-449.7 769.3 -474.8 729.9 -508.1 695C-543.4 657.9 -574 609.2 -615.7 578.9C-653 551.7 -694.9 542.3 -737.7 530.2C-786.8 516.3 -813 479.9 -853.8 454C-957.7 388.1 -1003.5 558.5 -1026.4 627.2C-1088.6 813.5 -1139 1005.1 -1197.6 1192.9C-1210.8 1235.2 -1240.7 1303.2 -1291.9 1264.8C-1335.7 1231.9 -1352.7 1155.2 -1370.4 1107.8C-1409.6 1002.8 -1436.5 899.3 -1531.7 832.2" stroke="#1A1919" stroke-linecap="round"/>
</g>
</svg>
