<svg width="969" height="1552" viewBox="0 0 969 1552" fill="none" xmlns="http://www.w3.org/2000/svg">
<g style="mix-blend-mode:screen">
<path d="M5799.5 798C5770 808.6 5736.2 831.3 5706.6 833.8C5670 836.9 5637.3 816.7 5612.9 792.3C5588.4 767.9 5562.2 744.9 5540.6 717.9C5523.4 696.4 5495.7 646.2 5464.4 642.9C5407.4 636.9 5358.7 766.7 5326.9 798.8C5303.1 822.9 5275.2 847 5241.1 853.8C5202.9 861.5 5179.3 829.5 5157.4 800.1C5140.9 777.9 5116 736.4 5091.1 726.3C5054.8 711.7 5022.6 738.5 4986.1 719.1C4928.9 688.7 4873.3 639.8 4837.3 585.7C4797.8 526.3 4775.9 447.3 4727 395C4696.6 362.4 4671.5 386.4 4639.8 408.7C4612.1 428.2 4580.5 435.4 4552.2 452.3C4489 490.1 4466.5 570.3 4431.2 630C4414 659.1 4396.4 691.9 4364.8 706.7C4323.2 726.2 4304.7 709.1 4279.8 674.7C4258.6 645.5 4246.9 608.4 4224.6 580.7C4201.5 552 4172.9 546.2 4141 533.2C4093.5 513.9 4014 442.6 3966.8 480.5C3914.4 522.6 3888.6 616.3 3857.7 674.3C3822.9 739.6 3794.5 801.5 3772 872.3C3730.4 1003.2 3713.5 1151.5 3646.8 1272.9C3628.7 1305.8 3601.7 1342 3575.3 1368.9C3546 1398.7 3527.6 1410.9 3487.5 1394.6C3458.9 1383 3431 1358 3401 1350.4C3387 1346.8 3370.7 1351.6 3356.4 1348.5C3337.6 1344.5 3318.8 1333.7 3301.6 1325.3C3267.1 1308.5 3236.7 1293.3 3201.5 1316.9C3174.8 1334.9 3161.9 1369.1 3135.8 1389.8C3109.1 1411 3078.2 1423.6 3052.6 1446C3024.6 1470.6 3007.3 1500.5 2986.3 1531.1C2963.9 1563.9 2951.5 1607.6 2909.2 1573.8C2888 1556.8 2875 1521.5 2861.2 1497.2C2842.2 1463.7 2828.5 1430.9 2799.3 1405.7C2773.7 1383.7 2749.4 1360.2 2723.6 1338.4C2693.8 1313.3 2660.9 1296.4 2622.9 1317.8C2596.6 1332.6 2581 1363.4 2560.2 1386.2C2533.2 1415.9 2510.3 1434.5 2471.6 1416.2C2439.4 1401 2414.6 1386.3 2379 1379.4C2339.7 1371.8 2319.2 1356.1 2281.3 1379.1C2250 1398.1 2233.4 1431.2 2205.3 1452.4C2168.8 1480 2153.9 1464.4 2132.1 1431.7C2111.2 1400.2 2095.5 1367 2078 1333.5C2063.3 1305.2 2050 1272.3 2030.7 1247.1C2008.5 1218 1979.2 1193.7 1956.5 1164.2C1915.9 1111.5 1883 1056 1849.2 998.8C1809.9 932.3 1746.2 893.3 1701.8 831.8C1661.4 775.7 1640.5 697.7 1617.2 633.4C1569.6 502 1527.7 369.1 1446.1 253.8C1405.6 196.6 1366.7 137.6 1326 80.7C1310.8 59.4 1274.7 5.8 1245.4 1.3C1222 -2.3 1177.8 30.8 1159.8 43.9C1106.7 82.7 1059.2 139.3 1028 196.9C1002.8 243.4 965.7 355.8 909.7 371.2C896.9 374.7 874.5 366.2 860.7 364C832.4 359.6 826.2 365.8 799.4 369.4C769.7 373.4 734.5 355.5 707.3 341.4C680.5 327.5 649.4 300.8 618.4 304.2C604.4 305.7 589.5 317.8 575.3 321.6C553.8 327.4 536.8 326.2 515.2 325.9C471.6 325.5 453.9 331.4 423.1 362.8C396.4 390.1 386.6 425.2 344.4 416.8C315.6 411.1 282.1 379.5 251.2 383C219.6 386.6 193.7 423.1 165.1 432.7C131.4 444 100.3 439.5 68.9999 459.5C57.0999 467 -6.20006 538.5 1.89994 543.5C-3.80006 539.9 50.0999 470.2 60.6999 461.2C92.4999 434.2 118.8 441.9 157.4 437.3C189.7 433.4 216.9 409.7 249.5 403.2C279.8 397.2 313.7 403.4 344.5 401.1C385.9 398 408 371 441.8 349.7C473 330.1 502.2 336.3 537.8 333.3C569.7 330.7 600.8 316.9 631.8 327.9C663.4 339 688.7 362.3 721.8 371.3C738.5 375.8 756.3 381.2 773.1 384.9C793.6 389.5 806 384.2 827.1 383.6C856.5 382.8 890.2 400.3 918.1 393.8C981.1 379.2 1010.1 286 1040.1 238C1074.5 182.9 1117.1 108.5 1173.9 75.5C1244 34.8 1291.9 76.6 1340.8 128C1388 177.6 1434.6 224.9 1468.7 284.8C1505.3 349.1 1535.5 413.7 1561.4 482.9C1608.8 609.4 1635.2 754.1 1722.8 860.4C1744.1 886.2 1767.8 909.4 1791.4 933.1C1821.1 962.9 1838 992.1 1861 1027.4C1898.3 1084.9 1947.8 1130 1988.1 1185.2C2029 1241.3 2062.1 1301.4 2101.6 1358.3C2118.7 1382.8 2139.7 1415.4 2168 1409C2201.3 1401.5 2216.9 1365.6 2240.9 1345.9C2267.8 1323.8 2300.6 1309 2333.9 1317.5C2365 1325.5 2400.4 1340.2 2430 1353.3C2459.1 1366.2 2488.3 1398.2 2522.7 1394.4C2557.7 1390.5 2579 1355.7 2601.5 1331.4C2622.4 1308.8 2658.6 1276.2 2692.1 1276.3C2724.8 1276.3 2747.5 1306.8 2767.6 1328.4C2790.5 1353 2815.3 1374.7 2835 1402C2849.7 1422.2 2879.7 1477.4 2903.2 1486.4C2941.3 1501 2962.9 1465.3 2985.3 1442.6C3010.3 1417.1 3034.6 1396.5 3064.2 1376.8C3092.6 1357.9 3121.9 1340.2 3145.6 1315.2C3168.1 1291.5 3180.5 1260.5 3205.3 1239.1C3239.2 1210 3265.2 1220.1 3301.2 1240.6C3332.9 1258.6 3359.6 1262 3393.9 1269.9C3424.2 1276.9 3453.2 1299 3481.9 1311.8C3519.7 1328.8 3532 1331.4 3566.1 1304.4C3676.2 1217.2 3705.2 1063.5 3741.7 935.7C3761.8 865.2 3780.8 792.9 3810.9 725.8C3839.1 662.7 3875.9 601.9 3907.5 540.3C3923 510 3940.7 465.2 3967 442.3C3995.6 417.4 4023.1 430.3 4054.2 446.1C4082 460.2 4109.3 476.5 4138.5 487.7C4164.6 497.7 4202.6 502.6 4223.5 522.5C4266 562.9 4276.9 686 4346.7 691.1C4408.8 695.6 4452.4 596.9 4480.4 555.4C4522.2 493.5 4572.2 451.3 4635.1 411.4C4660.6 395.2 4691.8 377.8 4720.2 396.3C4745 412.4 4764.7 457.6 4778.4 483.6C4833.7 588.6 4912.7 753.9 5055.1 735.2C5095.5 729.9 5108.5 734.6 5137.9 765.9C5159.5 788.8 5179 836.9 5215.6 842.2C5264.2 849.1 5326.2 755.9 5348.8 719.6C5369.6 686.1 5384.6 645.9 5417.9 621.7C5454.4 595.2 5475.5 605.5 5503.3 638.9C5547.9 692.5 5570 756.4 5624.7 804.3C5647 823.8 5676.2 844.4 5705.9 851.4C5734.8 858.2 5769.9 848.4 5801 847.9" stroke="#99999A" stroke-width="0.8" stroke-linecap="round"/>
</g>
</svg>
