<svg width="1920" height="962" viewBox="0 0 1920 962" fill="none" xmlns="http://www.w3.org/2000/svg">
<g style="mix-blend-mode:screen">
<path d="M6754.8 698.3C6725.3 695.4 6719.1 696.4 6699 677C6682.6 661.2 6670.4 641.6 6658.1 622.7C6632.6 583.2 6606.7 544.5 6580 505.8C6554.5 468.9 6530.2 434.1 6496.9 403.5C6464.1 373.4 6426.5 350.6 6396 318.1C6365.5 285.6 6336.9 246.8 6290 273.6C6253 294.7 6229.1 340.4 6207.1 374.7C6182.1 413.7 6158.2 451.4 6129.5 487.9C6106.4 517.4 6074.9 566.1 6037.2 573C5995.2 580.7 5955.2 535.6 5920.5 517.3C5881.5 496.7 5836 491 5797.7 469.6C5757.8 447.3 5725.8 420.2 5683.4 400.8C5645.2 383.4 5612.9 345.5 5568.4 354.3C5499.6 367.9 5452.6 543.5 5375.9 494.8C5303.2 448.6 5283.7 344.8 5210.5 294.8C5127.8 238.3 5049.3 251 4956.3 247.8C4848.6 244 4814.6 342.6 4778 426.2C4741.1 510.5 4702.3 585.7 4637.7 652C4604.5 686.1 4568.5 719.4 4518.9 726.9C4489.1 731.4 4420.1 736.2 4391.4 726C4374.7 720.1 4359.7 700.2 4344.4 690.4C4323.7 677.1 4301 665.4 4277.3 658.7C4239 648 4183.1 644.6 4143.6 653.1C4102.4 662 4078 693.2 4051.6 723.3C4014 766.1 3991.8 782.5 3936.6 757.2C3894.7 738 3858.6 720.7 3810.8 723.9C3763 727.1 3735.2 754.5 3710.3 793C3686.3 830.1 3671.4 875.4 3645.9 910.7C3616.5 951.4 3574 964.6 3524.5 960C3482.2 956.1 3438.7 928.2 3405 904.4C3361 873.2 3336.2 859.7 3282.9 868.2C3231.6 876.3 3206.5 843.8 3158.3 840.5C3113.3 837.4 3070.9 845.6 3026.1 828.7C2987 813.9 2952.8 781.6 2914.8 763C2875.3 743.7 2842.4 727.8 2812.7 694C2782 659.2 2757.2 625.1 2722.6 593.3C2689.3 562.6 2658.6 531.6 2634.3 493.1C2609.8 454.3 2588.1 413.1 2562.3 375.2C2537.6 338.8 2505.4 308.2 2480.8 272.3C2427 193.8 2406.9 97.3 2331.7 34C2251.7 -33.3 2166.2 12 2111.8 86.6C2086.2 121.7 2066.3 170.5 2030.2 197.2C1999.9 219.7 1955.1 241.5 1920.7 258.8C1876.2 281.1 1840.3 286 1801 252.3C1762.8 219.6 1732.8 203 1682 210.5C1589.9 224.1 1504.4 174.7 1415.2 159.1C1308.2 140.3 1304.7 297.9 1211.3 295.7C1166.7 294.7 1125 275 1079.6 278.3C1040.8 281.1 987.7 288.4 954.4 310C814.3 401.1 840.4 692.7 638.1 711.9C591 716.4 556.7 689.8 518.5 665.6C493.7 649.9 480.1 654.2 453.6 645.4C436.2 639.6 418.9 624.9 404.4 613.5C366.2 583.5 331.2 558.6 288.5 535C250.4 513.9 220.7 484.7 184.5 461.2C141.3 433 111.4 419.9 60.5 432.6C20.8 442.5 -32.9 465.9 -74 454.6C-113.9 443.7 -133.4 396.2 -169.7 378.8C-218 355.6 -256.4 407.3 -289.8 436.6C-356.8 495.3 -421.4 549.8 -507.7 494.9C-547.4 469.6 -571.8 429.7 -609.4 401.8C-641.4 378.1 -674.8 359.1 -706.7 334.4C-749.5 301.1 -782 284.5 -828.4 321.7C-861.9 348.5 -889.4 390.6 -912.8 425.9C-961.7 499.6 -1005.5 577.9 -1044.4 657.3C-1088.8 748.1 -1138.2 825.3 -1201.8 903.9C-1212.6 917.2 -1230.4 944 -1246.5 948.9C-1262.2 953.8 -1279.8 935.9 -1294 920.8C-1326.4 886.6 -1349.6 843.6 -1374 803.8C-1395.7 768.3 -1417.1 733 -1441.5 699.2C-1466.8 664.1 -1502.8 640.7 -1537.5 615.4" stroke="#050606" stroke-width="0.4" stroke-linecap="round"/>
</g>
</svg>
