<svg width="1920" height="1135" viewBox="0 0 1920 1135" fill="none" xmlns="http://www.w3.org/2000/svg">
<g style="mix-blend-mode:screen">
<path d="M6754.6 803.9C6704.6 779.8 6667.4 756 6633.8 710.9C6603.9 670.7 6580.4 624.6 6554.3 581.8C6531.3 544.1 6505.8 508.1 6479.5 472.6C6455.4 440 6414.6 377.1 6375.9 361.9C6293.1 329.3 6240.7 516.7 6201 563.8C6166.4 604.9 6120.9 617.9 6067.6 619.4C6020.7 620.7 5973.6 594.6 5928.9 580.5C5887 567.2 5842.5 550.5 5809.9 520.4C5773.5 486.7 5751.9 438.8 5721.4 399.5C5697.8 369.2 5657.3 324.6 5621.5 310.9C5565.1 289.3 5532 356.1 5506.5 394.8C5466.5 455.4 5382 612.1 5300.7 513.8C5240.3 440.8 5231.5 323.3 5131.6 283.7C5092.3 268.1 5033.4 257.7 4991.6 250.8C4941.7 242.6 4908.6 275.9 4879.4 313.3C4818.6 391.3 4789.3 491.4 4746.1 579.6C4701.4 670.9 4665.7 768.1 4611.2 854.1C4564.3 928 4479.5 1012.2 4385.8 959.5C4306.5 914.9 4240.6 813.7 4141 882.7C4100.6 910.7 4079.5 955.1 4051.5 993.8C4033.9 1018.2 4027.4 1034.3 3998.5 1040C3973.1 1045 3950.2 1037.2 3925.3 1031.5C3877.5 1020.6 3828.9 1026.1 3780.8 1015C3759.6 1010.1 3739.1 1003.5 3717.6 1002.8C3681.9 1001.7 3670.8 1020 3647.4 1045.2C3611.4 1083.9 3585.9 1115 3532.3 1128.3C3478.7 1141.6 3443.2 1131 3399.1 1098.1C3355.5 1065.6 3330.2 1040.1 3275.1 1032.3C3226.1 1025.4 3185.9 1011 3141 1039.3C3098 1066.4 3069.2 1098.1 3021.8 1054.9C2986.8 1023 2968.3 970.4 2938 934.5C2903.3 893.3 2856.2 875 2817 839.5C2781.1 806.9 2761.3 769.4 2733.2 730.8C2672.5 647.6 2613 579.2 2570.1 484C2529.7 394.5 2490.6 304.4 2450.7 214.7C2432.3 173.3 2414.3 130.9 2389.5 92.9C2357.4 43.7 2332.7 23.7 2274.3 17.4C2224.5 12 2176.1 -15.5 2132.7 16.6C2095.2 44.4 2075 92.1 2049.8 131C2021.6 174.6 1992 209.5 1952.6 243C1919.1 271.5 1881.6 331.4 1832.5 313.2C1787.7 296.6 1766.3 244.7 1713.6 244.9C1693.1 244.9 1673.6 252.1 1653.4 252.2C1623.2 252.4 1602.2 240.1 1576.1 227.1C1503.5 190.9 1386.8 145.4 1319.1 210.4C1284.3 243.8 1267 292.5 1226.1 318.8C1176.6 350.6 1138.2 310.8 1087.7 305.4C984.1 294.2 930.6 395 895.6 478.6C855.7 573.8 814.4 661.8 751.3 744.1C724.7 778.9 695.1 821.3 648 820.1C601.8 819 547.2 787.7 517.7 754.5C484.9 717.7 454.7 679.7 418.1 646.4C380 611.8 345 593.7 298.8 572.7C252.3 551.6 220.6 519.4 167.3 529.2C122.6 537.5 83.6 571.9 39.4 577.4C-20.9 584.9 -48.7 544.2 -76.4 500.5C-98.7 465.2 -125.2 401.2 -174 415.1C-195.6 421.3 -216.5 447.9 -232.3 462.5C-251.3 480.1 -269.5 486.2 -291.1 500.5C-330.5 526.5 -355.8 576.8 -400.3 593.3C-554.3 650.7 -652.9 129.2 -802.3 295.1C-865 364.8 -912.4 454.2 -968.8 530C-1027.2 608.4 -1052.3 699.6 -1086.1 790.1C-1121.2 884 -1155.3 995 -1210.5 1079.4C-1217.4 1090 -1242.6 1126.8 -1253.6 1129C-1276.3 1133.5 -1297.2 1108.6 -1307.7 1092.5C-1335.2 1050.2 -1354.1 1004.2 -1376.7 959.4C-1421 871.8 -1472.6 803.3 -1537.7 730.6" stroke="#AFAFAF" stroke-width="1.3" stroke-linecap="round"/>
</g>
</svg>
