<svg width="1494" height="1063" viewBox="0 0 1494 1063" fill="none" xmlns="http://www.w3.org/2000/svg">
<g style="mix-blend-mode:screen">
<path d="M-1529 477.9C-1500.6 477.4 -1495.1 474.9 -1474.8 490.7C-1459.4 502.6 -1447.3 520 -1435.6 535.3C-1408.9 570 -1386.2 607.2 -1366.9 646.5C-1350.1 681 -1337.3 717.5 -1321.3 752.4C-1299.1 800.9 -1286.4 826.2 -1245.9 859.7C-1172.4 722.7 -1152.6 571.2 -1104.7 424.5C-1077.5 341.1 -1046.4 272.1 -989.6 203.8C-964.2 173.2 -940.4 153.3 -900.3 148.2C-855.3 142.4 -829 163.8 -787.5 140.6C-765.1 128 -719.9 81.6 -695.8 78.5C-650 72.8 -632.7 134.2 -618.5 164.6C-584.9 237 -565.5 313.3 -536.4 387.2C-510.4 453.2 -476.2 523.5 -406 549.8C-386 557.3 -377.3 557.1 -362.9 570.9C-349.6 583.6 -339.4 601.6 -328.3 616.4C-303.3 649.9 -279.4 684.2 -250.9 714.9C-216.1 752.4 -194.9 757.3 -146.6 767C-100.1 776.3 -71 796.3 -45.3 837.5C-24.5 870.8 -9.89998 910.8 4.40002 947.6C13.8 971.8 19.8 1004.4 34.1 1026C44.4 1041.5 61.9 1050.1 78 1061C136.7 938.4 165 802.7 246.6 692.2C286 638.8 324.7 608.5 381.3 574.6C435.5 542.2 485 484.2 541.2 458.8C580.4 441.1 594.2 467.6 629.2 471.1C673.2 475.5 685.3 433.3 702.6 399.3C733.4 338.8 753.5 272.7 782.6 211.3C794.6 185.9 811.1 152 832.9 134.5C855.8 116.2 891.5 112.3 915.6 94.5C941.8 75.1 962.3 37.1 997.8 30.6C1025.9 25.4 1058.8 47.7 1083.3 57.6C1129.4 76.3 1153.8 67.1 1187.1 32.2C1218.2 -0.49999 1245.1 -5.20001 1287 10.8C1354.8 36.8 1423 74.3 1493.2 39.2C1463.7 54 1443.2 75.5 1407.3 69.9C1372.1 64.5 1343.9 39.9 1307.3 36.8C1273 33.9 1238.9 29.9 1207.1 46C1194.4 52.4 1185 65.1 1172.3 71.3C1155.4 79.5 1144.6 78.4 1124.2 77.9C1064.3 76.7 998.4 40.9 943.8 71.7C881.4 106.9 824.6 146.9 792 211.4C763.2 268.5 744.8 334.2 722.6 394.4C704.3 444.1 682.3 543.8 616.4 531.9C584.3 526.1 562.9 497.2 528.4 499.9C496.2 502.4 467.6 526.4 439.7 540.6C411.2 555.1 385.3 573.7 356.5 587.2C328.7 600.3 301.6 611.3 280.6 633.8C176.1 745.7 152.1 907.2 78.1 1037C44.4 1003.2 33.4 986 17 941.3C2.6 902.2 -12.4 867.7 -33.2 831.5C-73.4 761.2 -126 733.2 -201.3 712.2C-284.5 689.1 -315.6 622.4 -367.6 562.4C-390.8 535.6 -426.4 519.6 -453.8 496.8C-485.7 470.2 -507.9 440.6 -527.7 404.2C-563.4 338.5 -578 262.6 -614.7 196.4C-630.4 168.1 -655.1 117.2 -695 118.9C-724.3 120.2 -756.7 150.1 -790.3 152.5C-834.5 155.7 -854.8 116.2 -899.9 118.1C-941.1 119.8 -964.7 146.8 -985.4 180.5C-1003.9 210.7 -1013.6 247 -1029.5 278.8C-1044.4 308.6 -1063.8 335.7 -1076.4 366.5C-1143.5 530.6 -1155.8 714.1 -1246.1 867.5C-1363.4 753.2 -1357.4 526.3 -1528.9 462.5" stroke="#99999A" stroke-width="2" stroke-linecap="round"/>
</g>
</svg>
