<svg width="1920" height="1641" viewBox="0 0 1920 1641" fill="none" xmlns="http://www.w3.org/2000/svg">
<g style="mix-blend-mode:screen">
<path d="M6748.4 912.1C6704.3 891.7 6672.9 897.5 6627 889.5C6587.5 882.6 6567.1 856.1 6538.3 831.3C6505.8 803.3 6470.3 774.3 6425.9 788.9C6382.2 803.3 6366.1 831.6 6337.9 865.3C6308.8 900.1 6292.1 922.6 6247.3 898.7C6212.9 880.4 6186.6 845.1 6162.1 816.1C6130.9 779.2 6105.6 754 6062.6 731.4C6026.7 712.5 5998.1 675.3 5960.3 660.5C5924.2 646.3 5878.5 662 5840.8 660.8C5799.7 659.5 5769.3 635 5730.1 632.4C5689.7 629.7 5652.8 648.1 5611.2 643.3C5564.3 637.9 5549.3 581.8 5504.2 573.4C5435.9 560.8 5370.2 716.6 5348.1 764C5314.8 835.6 5291.1 909.9 5251 978.4C5232 1010.8 5204.6 1065.5 5164.3 1057.7C5128.3 1050.7 5098.8 1007.4 5080.4 979.1C5057.1 943.3 5037.2 910.2 5003.7 882.5C4981.4 864 4974.8 858.6 4951.1 866.8C4927.6 875 4918.9 891.4 4905.7 910.9C4812 1049.5 4737.8 1210.9 4687.4 1369.9C4662.3 1449.2 4641 1529.5 4615.2 1608.6C4603.6 1644.1 4588.8 1681.9 4549.6 1691.5C4520.1 1698.7 4511.2 1681.1 4485.4 1674.8C4468.2 1670.6 4451.2 1675.5 4433.4 1682.4C4414.7 1689.6 4403.1 1700.3 4383.6 1701.3C4355.6 1702.8 4342.8 1700.7 4314.3 1709.9C4279.4 1721.2 4233.8 1756.8 4197.7 1743.1C4167.4 1731.5 4142.9 1684.4 4120.5 1658C4093.2 1625.9 4060.5 1603.5 4016.7 1611.8C3933 1627.7 3926.2 1752.7 3879.1 1808.6C3859.4 1832 3863.7 1836.7 3838.6 1827.2C3815.1 1818.3 3811.3 1807.4 3802.4 1785.9C3785.5 1745.1 3769 1704.5 3753.8 1663C3739.5 1624 3725.5 1570.4 3694.8 1540C3667.5 1513 3625 1533.2 3588.3 1526C3547 1517.8 3510.8 1524.8 3468.7 1529.4C3420.8 1534.7 3396.7 1507.8 3353.4 1498.4C3313.4 1489.8 3270.9 1521.4 3238.8 1542.2C3215.1 1557.6 3175.4 1620.2 3148.6 1625C3094.3 1634.7 3036.2 1470.5 3019.2 1433.5C2980.6 1350 2940.5 1267.2 2902.1 1183.7C2867.8 1109.1 2838.6 1036.5 2791.1 968.8C2741.8 898.7 2699.7 833.1 2667.9 753C2636.2 673 2609.2 590.5 2572.2 512.6C2539.3 443.3 2482.2 378.4 2417.5 337.4C2340.1 288.4 2318.3 208.5 2284.9 127.1C2270.4 91.8 2255.4 54.5 2235.4 22.1C2209.6 -19.8 2192.2 -37.1 2143.5 -41.6C2057.4 -49.5 2002 37.1 1945.9 90.2C1915.7 118.8 1885.8 148.6 1848.7 167.5C1809.7 187.3 1779.1 159.8 1738.1 161.9C1643.7 166.6 1587 233.7 1544.8 308.3C1525.1 343.1 1500.7 374.9 1475.1 405.7C1458.9 425.2 1455.1 434.6 1430.2 438.3C1401.6 442.6 1398.3 429.8 1374.8 413.3C1335.6 385.9 1322.6 389.6 1280.5 406.9C1239.7 423.6 1203.5 416.3 1163.9 437.2C1129.6 455.3 1099.2 480 1066.3 500.2C1039.1 516.9 1039.1 518.9 1012.1 504C993.8 493.9 975.9 479 957 471C912.6 452.1 888.4 474.1 860 507.7C832.9 539.8 806.5 578.6 789 616.7C753.3 694.8 736.1 785.4 708.1 866.6C696.6 900 683.5 947.8 661.4 974.5C627.5 1015.3 598.1 995.7 565.2 968C529.4 937.8 508 909.3 461.6 898.5C444.4 894.5 427.3 889.7 410.4 884.7C375.2 874.3 376.3 871.8 346.9 890.7C314.6 911.5 273.4 918.7 243.9 943.8C206.4 975.7 193.5 1020.4 176.2 1064.3C146.1 1140.9 124.8 1212.4 77.8 1280.6C58.3 1237.5 38.9 1196.2 25.1 1151C9.29998 1099.4 -3.49998 1049.2 -32.6 1003.1C-58 962.9 -104.7 951.9 -151.2 945.7C-206.4 938.4 -229.1 995.9 -281.1 996.6C-364.8 997.8 -406.1 837.3 -447 776.2C-472.4 738.3 -505.1 707.3 -534.5 672.6C-566.1 635.2 -588.9 599 -633.5 576.3C-673.5 555.9 -716.2 541.5 -756.7 522.5C-804.3 500.2 -822.9 458.5 -862.3 428.7C-958.1 356.1 -1007.8 567.3 -1026.7 624.8C-1057.1 717.6 -1086.4 810.6 -1117.3 903.3C-1148.5 996.9 -1163.2 1105.3 -1204.1 1195.1C-1211.1 1210.5 -1231.3 1248.8 -1246.1 1254.1C-1261.7 1259.7 -1286.2 1235.3 -1297.3 1221.6C-1332.1 1178.8 -1349.9 1122.3 -1370.1 1072C-1391 1019.6 -1410.9 967.3 -1433.9 915.8C-1456.2 865.8 -1490.6 831.5 -1530.8 795" stroke="#0D0D0D" stroke-width="1.9" stroke-linecap="round"/>
</g>
</svg>
