<svg width="1920" height="1641" viewBox="0 0 1920 1641" fill="none" xmlns="http://www.w3.org/2000/svg">
<g style="mix-blend-mode:screen">
<path d="M6749.3 889.5C6728.3 889.6 6708.1 889.5 6687.3 892.4C6668.1 895.2 6642.9 910.8 6625.5 910.3C6581.3 909.2 6557.7 860.3 6531.5 832.6C6500.3 799.5 6461.3 781.6 6416.8 808.6C6381.1 830.2 6363.4 874 6333.2 900.5C6308 922.7 6247.9 948.7 6213.3 938.2C6177.9 927.4 6153.6 875.4 6128.7 851.4C6072.3 796.9 6001.2 755.4 5942.8 702.7C5905.7 669.3 5878.9 670.1 5831.9 662.8C5784.8 655.5 5769.3 621.4 5740.5 586.9C5713.1 554.1 5679 519.4 5633.1 515.2C5615.8 513.6 5599.1 523.7 5582 522.4C5558.3 520.6 5538.2 503.3 5512.8 509.1C5445.6 524.3 5407 671.1 5382.3 728.1C5368 761.1 5353.2 794 5337.9 826.5C5323.4 857.3 5302.2 926.8 5260.9 935.7C5217.5 945.1 5194.6 892.4 5176.3 862.9C5152.7 824.8 5143.8 788.1 5099.8 772C5083.5 766 5064.8 766.8 5048.9 760.5C5027 751.9 5010.9 735.3 4987.7 728.6C4944.3 716.1 4911.9 744.3 4886.1 779.1C4838.2 843.7 4798.8 930.7 4764.6 1003.5C4728.6 1080.1 4705.6 1164.2 4683.1 1245.5C4661.1 1324.8 4642 1404.7 4618.8 1483.7C4606.4 1525.7 4592.3 1564.2 4575.3 1604.6C4567.8 1622.4 4562.7 1633.9 4551.2 1648.1C4530.8 1673.4 4523 1676.3 4493.9 1676.4C4451.4 1676.4 4415.9 1682.9 4374.1 1670.2C4332.2 1657.5 4296.1 1643.2 4253.8 1659.9C4209.8 1677.3 4186.4 1661.9 4144.2 1643C4102 1624.1 4068.7 1627.6 4029.1 1653.3C3990.4 1678.4 3971.2 1713.3 3949 1752.4C3941.4 1765.8 3933.7 1779.1 3926 1792.4C3911.1 1817.7 3908.3 1837.2 3881.4 1839.7C3822 1845 3788.4 1671.6 3770.6 1629.1C3754 1589.7 3736.8 1536.7 3693 1520.1C3677.5 1514.2 3659.9 1519.6 3643.9 1515.1C3622.4 1508.9 3606.4 1493.3 3583.8 1488.3C3528.9 1476.2 3518.1 1505.2 3480.3 1536.3C3434.7 1573.8 3413.7 1551 3362.6 1545.8C3322.3 1541.8 3288.2 1563.2 3256.4 1585.9C3226 1607.5 3190.7 1663.9 3154.8 1673.4C3091 1690.4 3040.4 1521.7 3023.3 1478.5C2989.7 1393.7 2955.4 1327 2903.7 1252.4C2856.9 1184.8 2826.1 1103.5 2792.4 1028.8C2775.7 991.9 2757.9 951.3 2732.4 919.6C2708 889.3 2670.3 868.1 2649 835C2604.1 764.9 2590.4 673.4 2553.1 599.1C2514.2 521.5 2473.5 447.8 2415.5 382.8C2356.7 317 2329.3 236.5 2291.5 158C2271.3 116 2219.5 -52.3 2157.5 -36C2134.2 -29.9 2093.8 27.4 2071.8 44.4C2039.7 69.2 2002.7 85.6 1975.1 115.4C1929.9 164.4 1897.8 296.3 1823.3 307.4C1808.4 309.6 1786.6 299.6 1771.3 296.3C1745.4 290.6 1727.4 291.3 1700.9 291.4C1654.2 291.6 1625.6 284.6 1588.4 315.6C1556.4 342.2 1529.4 371.5 1492.3 391.7C1453.3 413 1415 408.1 1375 423.6C1340.9 436.8 1308.8 481 1274.4 481.8C1252.7 482.3 1234.8 466.4 1214.8 462.3C1193.8 458 1180.2 464.7 1158.9 473.2C1116.8 489.9 1093.9 517.5 1061.1 547.8C1030 576.6 992.8 589.3 955.8 609.4C884.4 648.1 824.8 700.9 786.4 773.1C746.9 847.5 724.3 929.6 689.9 1006.1C678.2 1032.2 656.6 1102.7 618.3 1106.4C581.3 1110 551.3 1041.5 536.2 1019.9C512.2 985.8 482.6 957.2 457.6 924.3C433.3 892.4 419.1 856.1 389.6 828.1C367 806.6 364.6 811.5 339.1 835C322.6 850.3 312.6 870 297.9 887.2C272.2 917.2 232.4 929.7 204.9 957.7C149.8 1013.7 120.1 1103.8 78.7 1170.1C57.8 1126.8 38.8 1088.6 27.9 1042.1C16.2 991.7 7.30005 940 -10.7 891.4C-25.9 850.1 -38.9 776.4 -95 790.7C-134.8 800.9 -176.9 854.5 -208.1 880.2C-233.8 901.4 -295.3 963.9 -333.3 956.9C-367.9 950.6 -405.7 877.2 -422.3 851.4C-477 766.2 -525.5 678.9 -576 591.6C-599.6 550.8 -629.3 505.1 -678.7 495.4C-708.3 489.6 -712.8 503.4 -740.9 511.9C-770.1 520.7 -790.1 513.2 -816.6 502.3C-831.9 496 -851.8 482.7 -867.6 482.8C-888.5 483 -930.3 505.4 -945.5 518.9C-984.5 553.6 -998.5 601 -1015.3 648.3C-1082.4 837.5 -1131.4 1033.3 -1196.9 1223.3C-1208.9 1258.3 -1245.3 1336.5 -1293.7 1319.7C-1336 1304.9 -1359.6 1214.5 -1373.3 1180.3C-1417.2 1070.8 -1460.9 972.7 -1533.2 878.5" stroke="#858585" stroke-width="1.4" stroke-linecap="round"/>
</g>
</svg>
