<svg width="1920" height="1032" viewBox="0 0 1920 1032" fill="none" xmlns="http://www.w3.org/2000/svg">
<g style="mix-blend-mode:screen">
<path d="M6755.5 775.3C6680.5 714.5 6636.1 643.5 6584.8 562.6C6533.2 481.2 6469.3 421.8 6405.8 350.6C6371.4 312 6340.9 271.5 6291.8 315.3C6256.3 346.9 6234.8 397.1 6210.9 437C6179.2 489.9 6096.7 638.3 6022.7 604.1C5982.6 585.6 5946.6 558.5 5906.2 539C5867.6 520.3 5825.6 504.3 5789.1 482.1C5749.1 457.8 5707.4 428.1 5671.2 398.5C5635 368.9 5599.8 322.3 5550.3 357.5C5492.3 398.8 5444.9 585 5350.3 506.2C5316.3 477.9 5294 432.6 5271 394.9C5246.7 355 5215.4 323.3 5176.3 297.9C5136.9 272.3 5096.5 257.9 5049.5 254.6C5006 251.6 4958.2 242.1 4917.1 258.7C4827.8 294.7 4801.8 415.1 4766.4 494.7C4730.5 575.4 4688.4 651.8 4631.9 719.8C4601.1 756.9 4565.4 787.6 4518.4 802.9C4484.8 813.8 4423.4 830.4 4390 814.7C4371.3 805.9 4354.8 781.2 4337.6 768.1C4318.1 753.3 4293 735.6 4269 729C4237.3 720.2 4172.4 717.8 4141.1 727.7C4099.5 740.8 4075.2 785 4051 817.7C4033 842 4027.3 859.8 3998 865.1C3970.7 870.1 3960.8 857.1 3935.7 846.4C3892.7 827.9 3846.6 823.7 3800.5 822.7C3746.8 821.6 3716.8 857.2 3687.7 899.5C3665.2 932.3 3644.4 995 3606 1015C3591.5 1022.6 3560.1 1022.2 3542.3 1025.5C3520 1029.6 3500.5 1032.3 3477.8 1024.9C3429.4 1009.2 3404.3 961.4 3361.7 937.7C3319.4 914.2 3277 942.6 3232.2 927.6C3212.7 921 3198.7 908.6 3178.3 905.8C3148.7 901.8 3135.5 918.8 3108.4 923.5C3059.9 932 3018.1 900.1 2983.3 872.1C2948.1 843.8 2912.5 821.5 2873.3 799.2C2831 775.2 2804.7 741 2774.7 703.6C2716.2 630.7 2652.3 569.2 2605.1 487.7C2555 401.2 2495 321.2 2452.8 230.6C2415.2 149.7 2385.9 63.5 2302.5 19.4C2199 -35.3 2134.1 45.9 2082.9 125.1C2056.2 166.4 2030 195.9 1989.8 223.6C1955.4 247.3 1920.2 291.6 1879.4 302.6C1830.2 315.9 1808.9 270 1772.3 244.3C1726.4 212 1694.4 238.2 1645.7 236.5C1618.4 235.6 1601.1 220.9 1576.1 214C1555.8 208.5 1536.2 209 1516.2 201.7C1478.1 187.9 1418.7 155.9 1377.9 161.8C1289.5 174.6 1292 330.2 1190 316.2C1137.5 309 1100.3 292.9 1046 302C996.1 310.4 964.2 315.7 931.4 357C876.8 425.6 859.8 518.2 819.6 595.2C780.5 669.9 713.9 777.5 614.4 757.5C563.8 747.3 536.6 711.3 494.6 687.6C475.3 676.7 455 673 436.2 660.6C413 645.3 397.5 625 376.6 607.1C342.7 578 299.5 562.1 262.8 536.8C223 509.3 183.9 477.6 133.6 472.2C88.3 467.3 44.2001 493.7 -0.199951 502.2C-55.4 512.7 -77.8 492.5 -110.8 451.1C-139.3 415.3 -167.3 383.3 -214.1 407.5C-255.7 429 -291.9 471.9 -326.6 502.6C-355.7 528.3 -393.3 565.2 -432.4 561.3C-472.1 557.3 -513.3 514 -541.7 488.1C-578.5 454.5 -613.8 418 -649.6 383.2C-676.5 357 -707.1 303.7 -744.2 290.9C-819.3 265 -892.8 417.3 -923.2 467.5C-973.9 551.1 -1021.2 635 -1061.6 724.1C-1100.7 810.4 -1150.1 896.3 -1204.4 974C-1214.3 988.2 -1229.5 1012.1 -1245.2 1019.2C-1262.5 1027.1 -1278.9 1014.4 -1295.5 997.4C-1329.6 962.5 -1350.3 908.8 -1373.1 866.7C-1394.8 826.7 -1416.6 786 -1444.2 749.6C-1469.5 716.1 -1505.3 691 -1537.3 663.7" stroke="#C5C5C5" stroke-width="3" stroke-linecap="round"/>
</g>
</svg>
