<svg width="1920" height="1641" viewBox="0 0 1920 1641" fill="none" xmlns="http://www.w3.org/2000/svg">
<g style="mix-blend-mode:screen">
<path d="M6744.5 913.5C6712.8 919.4 6688.4 925.8 6662.3 946.2C6637.3 965.8 6618.4 998.2 6590.6 1014.2C6566.7 1028 6534.2 1019.4 6505.1 1023.7C6473.5 1028.3 6446.4 1040.7 6415.4 1022.9C6367.9 995.6 6320.9 929.9 6289.7 886C6251.9 832.8 6221.2 778.7 6169.1 737.3C6143.1 716.7 6122.7 698.2 6090.4 716.3C6065.9 730.1 6052.9 757.4 6032.7 777.7C5976.7 834.2 5931.2 822.7 5873 777.3C5825.3 740.1 5775 696.3 5723.2 665.7C5699.1 651.5 5664 639.2 5634.8 646.6C5608.7 653.2 5589.6 680.3 5576 704.2C5544.6 759.3 5528.6 821.6 5499.4 877.4C5483.6 907.6 5467.3 935.1 5442 957.5C5419.9 977 5392.9 989.2 5372.6 1009.8C5348.2 1034.5 5331.3 1065.5 5314 1095.1C5298.2 1122.2 5276.5 1142.8 5259 1168.5C5223.1 1221.2 5209.1 1284.1 5177.4 1338.4C5162.3 1364.3 5141.7 1395.1 5110.9 1401.1C5082.8 1406.6 5058.7 1392.3 5032.7 1378.3C4978.8 1349.3 4954.5 1278.8 4894.6 1256.5C4818.3 1228.2 4816.3 1321.9 4763.8 1353.7C4739.9 1368.2 4704.8 1363.6 4679.2 1373.6C4642.5 1388 4628.3 1413.9 4607.1 1444.9C4532.2 1554 4484.9 1663.3 4446.3 1789.7C4437.5 1818.4 4427.2 1844 4414.9 1871.6C4398.7 1908 4397.4 1924.3 4353 1920.2C4296 1915 4228.9 1867.6 4190.4 1827.6C4171.2 1807.6 4157.9 1782.1 4137.8 1763C4108.2 1734.8 4095.8 1738.8 4058 1732.4C3986.3 1720.4 3984.8 1632.3 3937.9 1586.1C3914.6 1563.2 3890 1559.7 3859.5 1565.7C3823.8 1572.7 3805.7 1573.9 3769.6 1572.5C3704.2 1569.9 3655.4 1592.1 3602.7 1542.9C3576.4 1518.4 3565.7 1498 3532.6 1483C3507.5 1471.6 3482.6 1459.9 3458 1447.5C3430.7 1433.7 3406 1411.7 3374.9 1411.7C3344.7 1411.7 3329.6 1430.9 3306.4 1449.6C3274.8 1475.1 3262.5 1485.4 3229.5 1450.1C3211.5 1430.8 3198.9 1398.1 3186.6 1374.6C3155.5 1315.1 3129.8 1253.7 3105 1191.4C3079.9 1128.5 3055.3 1065.9 3028.4 1003.7C3007.7 955.8 2988.1 870.2 2940.3 840.3C2917.6 826.1 2880.7 832.8 2856.2 818.2C2829 802 2812.2 771.1 2798.8 744C2771.1 687.8 2744 631.2 2717.9 574.3C2664.6 458.2 2603.9 344.7 2546.3 230.7C2517.5 173.7 2489.5 116.5 2463.9 58C2450.7 27.8 2439.3 -0.0999966 2416.7 -24.7C2398.9 -44 2410.4 -40.7 2390 -38.1C2375.8 -36.3 2363 -23.8 2353 -14.9C2328.9 6.70001 2311.3 38.6 2279.6 51.6C2240 67.9 2225.6 48.4 2197.9 22.9C2152.7 -18.5 2106.3 -44.5 2052.2 -72.9C2022.8 -88.4 1997.8 -100.5 1964.9 -89.6C1936.7 -80.3 1914.3 -60.3 1887.3 -47.5C1859.1 -34.2 1826.9 -29.6 1800.4 -12.8C1773.5 4.3 1758.8 33.4 1743.7 62.3C1714.8 117.6 1695.6 168.3 1659.7 219.9C1640.3 204 1595.4 145.1 1576.1 139.1C1540.2 127.9 1504.1 179.2 1488.4 202.9C1474.8 223.5 1447.1 296.7 1410.5 288.3C1397.1 285.2 1380.9 254.3 1369.7 245.5C1349.1 229.1 1338.3 222.4 1317.5 229.4C1278.4 242.4 1257.4 293.4 1226.1 318.2C1198.8 339.9 1159.5 377.8 1122.6 379.7C1049.8 383.4 987.1 228.4 917 281.2C891.8 300.2 869.4 355.6 851.5 383.5C828 420 791.5 431.6 760.3 461.6C702.2 517.4 681.3 601.9 604.5 633.5C527.6 665.1 495.8 746 451.6 812.2C407 878.9 343.2 933.4 289.6 993.8C235.9 1054.2 169.4 1099.2 113 1156.3C57.2 1212.8 13.1 1297.2 -78.1 1296.3C-172.5 1295.3 -200.5 1202.6 -227.9 1126.9C-242.9 1085.5 -257.8 1043.8 -278.3 1004.8C-300.9 961.7 -332.8 979.8 -374 982.1C-454.3 986.6 -489.7 852.1 -515.3 790.7C-548.2 712 -576 631.3 -610.8 553.4C-625.2 521.2 -641.6 489.8 -657.1 458.1C-673.9 423.7 -693.8 362.1 -728.6 339.8C-789.8 300.6 -845.4 442.2 -872.2 484.3C-895.5 520.9 -919.2 557.1 -952.1 585.7C-981.9 611.5 -1011.7 632.7 -1034.3 666C-1082 736.3 -1123.1 815 -1155.3 893.4C-1171.3 932.3 -1183.4 972.8 -1198.9 1011.9C-1212.2 1045.5 -1224.5 1093.9 -1250.3 1118C-1325.5 1188.2 -1358.3 1004.6 -1426.3 1000.1C-1461.2 997.8 -1498.9 1033.3 -1530.7 1049.7" stroke="#BDBDBE" stroke-width="1.7" stroke-linecap="round"/>
</g>
</svg>
