<svg width="1920" height="1456" viewBox="0 0 1920 1456" fill="none" xmlns="http://www.w3.org/2000/svg">
<g style="mix-blend-mode:screen">
<path d="M6745.1 1043.5C6720.8 1080 6678.5 1154.2 6622.7 1147.3C6575 1141.4 6553.8 1075.1 6535.9 1039.8C6510.8 990.4 6489.3 936.9 6456 892.1C6443.6 875.4 6427.2 856 6410.7 843.3C6382.6 821.5 6366.9 823.8 6334.6 820.7C6275.4 815 6265.1 769.4 6236 724.3C6206.1 677.9 6173.4 629.4 6130.6 593.5C6085.1 555.3 6041.9 580.8 5991 561.9C5944.7 544.7 5891.6 515.6 5847.8 492C5804.5 468.8 5758.2 422.2 5711 455.6C5674.4 481.5 5645.8 537.5 5621.9 575.4C5595.1 618 5564.9 656.3 5537.2 697.8C5505.1 745.9 5484.7 797.8 5460 849.7C5436.6 898.8 5417.3 941.1 5370.7 971.3C5326.8 999.8 5287.5 1033.5 5256 1077C5226 1118.5 5208.8 1171.9 5166.5 1203.1C5153.6 1212.6 5111.4 1239.1 5094.6 1239.1C5073.6 1239.1 5047.2 1211.5 5033.1 1196.7C4995.7 1157.3 4975.9 1101.1 4931.4 1068.6C4895.7 1042.5 4833.7 1032.4 4789.7 1032.9C4695.7 1034.1 4661.5 1221.2 4635.4 1291.4C4615.3 1345.4 4601.1 1399.9 4557.2 1439.9C4518.7 1475 4483.2 1497.8 4461.6 1547.8C4440.3 1597.3 4420.2 1651.4 4391.2 1697C4363.3 1740.9 4332.9 1780.9 4306.4 1826.4C4287.5 1858.8 4251.5 1942.9 4217.1 1951.7C4167.5 1964.4 4155 1871.9 4142.7 1836.6C4105.3 1728.5 4071.2 1619.9 4030.6 1512.9C4013.2 1467.2 3998.2 1416.3 3974 1374.1C3944.9 1323.4 3899.9 1302.9 3856.8 1267C3826.1 1241.5 3774.4 1175.1 3728.7 1192C3684.5 1208.4 3671.6 1275.8 3643.5 1307.7C3620.5 1333.8 3605.4 1340.3 3577.1 1325.6C3557.3 1315.3 3536.7 1306.7 3517 1296.3C3463.5 1268 3426.2 1239.5 3396.9 1185.5C3374 1143.4 3360.8 1095.3 3340.7 1051.6C3318.6 1003.4 3293.9 961.3 3266 916.3C3211.1 827.8 3149.5 747.2 3098.9 656.3C3072.1 608.1 3039 568.9 3008.4 523.6C2979.7 481.2 2952 426.9 2896.8 417.9C2854.4 411 2782.4 417.9 2748 441.5C2711.5 466.5 2666.6 531.9 2618.7 531.3C2578.5 530.8 2535 469 2504.8 441.6C2466.7 406.9 2419.8 382.8 2376.7 354.7C2331.9 325.4 2293.8 283.2 2239.9 272C2188.6 261.4 2130.2 301.3 2088.2 271C2011.5 215.7 1982.6 58.2 1869.6 59C1819.8 59.4 1766 86.4 1717.3 76.3C1696.4 72 1677.7 56.9 1657.5 54.2C1621.2 49.5 1600.5 72.9 1579.7 99.3C1548.4 139.1 1531.5 186.8 1496.1 224.5C1482 239.5 1463.5 260.2 1445.4 258.7C1415.6 256.1 1402.6 226.8 1382.1 211C1329.4 170.7 1307.9 230.8 1271.8 264.9C1242.2 292.9 1243.1 279 1206.1 279.2C1178.3 279.4 1147.5 294.2 1125.7 310.4C1108.1 323.5 1094.8 342 1076.7 354.2C1039 379.7 1039.7 371.8 1020.2 336.7C994.9 291.3 978.6 243.5 958.8 195.5C936.5 141.5 917.3 94.5 876.3 52.1C859.6 34.9 841.4 21 821 9.1C790.6 -8.6 779 5.29999 753.3 28.9C714.3 64.7 688.5 111.2 654.1 150.7C621.8 187.8 575.8 196.9 543.3 235C504.5 280.5 487.1 340.2 463.5 393.8C443.3 439.6 421.1 484.6 399.8 529.9C356.3 622.6 342.6 734.3 290.3 822.1C283.8 833.1 267.9 857.4 257.1 863.7C244.3 871.2 250.1 866.5 231.2 867.2C202.6 868.2 180.7 864.9 152.8 875.4C105.1 893.4 73.6 946.8 45 986.9C30.3 1007.5 15.1 1028.2 1.80005 1049.6C-11.5 1070.8 -21.2 1105.3 -39.6 1121.9C-95 1172 -132.9 1097.7 -155.2 1058.9C-167.7 1037.1 -180.6 1015 -195.4 994.7C-210.2 974.5 -231.2 959.6 -245.8 939.6C-276.6 897.5 -301 839 -325 792.5C-374.4 696.9 -422 603.4 -486.2 516.4C-516.7 475.1 -549.6 417.8 -607.1 443.5C-653.6 464.2 -689.8 509.9 -735.3 533.4C-785 559.1 -841.4 545.3 -890.2 565.9C-936.8 585.6 -966.6 630.5 -991.6 673C-1016.2 714.8 -1037.5 781.3 -1072.3 814.7C-1092.8 834.4 -1122.8 838.9 -1145.1 854.6C-1165.9 869.2 -1179.5 898.8 -1192.1 921.8C-1216.4 965.8 -1235.6 1013.4 -1254.4 1060C-1263.8 1083.3 -1272.3 1107.2 -1282.7 1130C-1288.2 1142.2 -1313.5 1209.6 -1324.8 1213.1C-1363.2 1224.8 -1403.9 1137.5 -1423.1 1115.9C-1443.8 1092.7 -1463.4 1089.8 -1485.5 1070.6C-1503 1055.4 -1515 1028.7 -1528 1009.2" stroke="#D1D1D1" stroke-width="0.7" stroke-linecap="round"/>
</g>
</svg>
