<svg width="1920" height="1460" viewBox="0 0 1920 1460" fill="none" xmlns="http://www.w3.org/2000/svg">
<g style="mix-blend-mode:screen">
<path d="M6745.3 1046C6709.1 1079.5 6637 1174.2 6581 1127C6560.5 1109.7 6546.3 1066.2 6534.2 1041.3C6518.6 1009.2 6505.7 975.9 6488.9 944.4C6469.9 908.8 6452.7 874.3 6420.9 848.4C6389.7 823.1 6366.2 829.4 6331 819.5C6266 801.2 6247.6 710.2 6202.2 665.8C6180.7 644.8 6147.1 617.5 6122.2 600.8C6089 578.5 6071.5 586.5 6035.3 585.8C6001.2 585.2 5975.9 566.8 5945.4 555.5C5909.1 542 5871.1 534.2 5834.7 520.6C5808.7 510.9 5770.7 491.6 5742.7 496.8C5709.8 503 5682.2 540.7 5663.2 564.5C5621.2 617 5580.6 673.5 5541.4 728C5500.3 785.1 5480.5 851.9 5446.1 912.3C5409.8 976 5348.8 1012 5299 1065.4C5251.8 1116 5225.7 1179.7 5179.6 1230.2C5163.9 1247.4 5120.1 1282.8 5093 1275.5C5067.4 1268.6 5036 1219.2 5021.1 1199.2C5002.2 1174 4987.5 1142.3 4965.9 1120C4939 1092.1 4909 1086.2 4873.1 1078.2C4842.8 1071.5 4793.3 1057.1 4762.6 1066.9C4733.2 1076.3 4716 1109 4704.6 1135.3C4676.4 1200.3 4652.8 1266.8 4627 1332.8C4612.4 1370.3 4602.5 1403.2 4576.5 1433.6C4554.4 1459.3 4526.7 1476.4 4504.1 1501.1C4453.7 1556.3 4435.9 1631.5 4399.4 1695.8C4385.2 1720.8 4363.9 1739.3 4347.4 1762.7C4325.2 1794.2 4306.8 1829.5 4286.7 1862.5C4271.4 1887.6 4252.8 1935.5 4230.2 1952.5C4188.2 1984.1 4179.5 1943.7 4167.3 1911.9C4142.3 1846.9 4122.6 1780.9 4100.9 1714.8C4076.5 1640.5 4049.6 1567.7 4021.3 1494.9C4001.4 1443.7 3981.6 1350.9 3933.9 1315.8C3922.7 1307.5 3903.5 1307.6 3890.8 1301.5C3876.4 1294.6 3861.3 1282.9 3848.7 1273.1C3819.5 1250.5 3798 1212.8 3768.5 1192.5C3697.5 1143.6 3670.6 1253.5 3638.2 1294.5C3631.5 1303 3612.2 1329.6 3602.1 1332.1C3590.4 1335.1 3562.6 1317.9 3549.8 1313.3C3516 1301.3 3477.9 1295 3448.4 1273.6C3394.6 1234.6 3377.9 1157.4 3352.8 1099.1C3297.6 970.8 3215.9 859.8 3144.3 741.1C3075.6 627.2 3020.4 487.1 2891.4 427.4C2860.6 413.1 2827.2 396.7 2793.4 392.4C2755.7 387.7 2725.8 404.2 2692.6 420.5C2669.9 431.6 2633.1 454.4 2606.6 449.4C2579.5 444.3 2546.4 408.2 2525.2 392.4C2472.1 352.8 2409.7 328.8 2356.2 291C2290.6 244.7 2250 198.2 2165 221.8C2122.5 233.6 2108.1 228.6 2076 198.9C2052.3 177 2031.2 151.9 2010.3 127.3C1989.5 102.8 1967.5 77.9 1940.5 60.4C1907.6 39 1873.6 38.5 1835.9 33.5C1802.8 29.1 1773.6 30.9 1741.3 28.7C1705.1 26.3 1676.2 -0.400007 1640 1.99999C1573.4 6.29999 1546.6 106.9 1515.7 156.7C1503.1 177.1 1475.3 234.3 1453.5 242.2C1413.3 256.9 1396.2 196.3 1371.3 185.1C1329.1 166 1312.9 206.9 1289.3 231.5C1279.6 241.6 1264.1 261.5 1251.3 266.2C1236.7 271.6 1220.9 262.4 1204.5 262.3C1135.8 261.9 1092.7 339.5 1040.3 375C1007.6 317 984.5 260.8 959.5 199.1C934.9 138.6 915.4 85 861.6 45.2C839 28.5 810.4 5.49999 785.9 15.4C758.1 26.7 733.6 65.3 716.9 88C700 111 686.6 136.6 669.4 159.3C644.8 192 625.7 203.7 593 224.4C492.1 288.1 463 432.8 416.3 535.1C386.2 600.9 363.4 665.9 337.6 733.4C318.3 783.9 295.8 855.8 250 889.7C228.1 905.9 192.4 914.3 168.1 927.6C136.9 944.7 114.2 963.5 88.8 988.3C66.9 1009.7 45.4 1031.3 25.3 1054.4C8.00005 1074.2 -18.3 1118.5 -41.1 1129.4C-104 1159.4 -150.3 1060.4 -178.5 1022.8C-199.2 995.3 -224 968.6 -242.3 939.7C-259.6 912.5 -269.2 880.1 -283.6 851.2C-336.9 744.1 -403.1 627.2 -488.4 542.2C-509.2 521.5 -534.7 495.5 -565 489.5C-594.6 483.6 -624.7 498.3 -653 506.1C-717.2 523.8 -772.6 532.9 -839.1 529.8C-982.4 523.1 -1007.3 727.2 -1099.5 794.4C-1206 872 -1229.7 1021.7 -1281.9 1135.6C-1294.2 1162.5 -1311.1 1187.9 -1325.6 1213.6C-1359.2 1170.6 -1377.4 1124.4 -1407.5 1080C-1424.5 1054.9 -1441.7 1038.7 -1467.2 1025.3C-1493.2 1011.6 -1507.7 995.3 -1528.3 973" stroke="#BDBDBE" stroke-width="1.8" stroke-linecap="round"/>
</g>
</svg>
