<svg width="1920" height="880" viewBox="0 0 1920 880" fill="none" xmlns="http://www.w3.org/2000/svg">
<g style="mix-blend-mode:screen">
<path d="M6754.8 641.5C6731.2 638.2 6720.5 638.4 6704.1 623.9C6688.8 610.4 6676.9 589.2 6665 572.4C6638.6 535.1 6612.6 498 6585.7 461.1C6559.9 425.7 6536.1 386.5 6502.5 357.6C6472.8 332 6435.3 321.5 6404.2 299.1C6372.1 276 6338.4 225.2 6293.5 232.5C6254.9 238.7 6226.7 286.5 6206.2 315.2C6180.5 351.1 6155.5 386.1 6127.9 420.6C6102.3 452.7 6074.3 498 6037.3 515.9C5991.4 538.2 5961.4 496.1 5921.6 479.8C5879.2 462.4 5837.8 470.4 5798.2 442.9C5760.7 416.9 5740.3 388.7 5693.8 379.6C5655 372 5618.1 346.7 5579.1 344.2C5497.1 339 5450 510.9 5376.1 454.2C5343.5 429.1 5319.7 379.6 5294.7 347.6C5266.9 312 5238.4 278.8 5199.8 255.1C5161.8 231.8 5125.1 223 5080.8 226.5C5057.3 228.3 5035 238.2 5012 240.1C4992.6 241.7 4971.5 235.5 4951.7 234.4C4845.9 228.8 4806.4 325.8 4765.1 405.9C4726.3 481 4686.3 563.3 4610.4 607.9C4571.1 631 4529.3 638.2 4484.7 636.6C4439.2 635 4406.5 643.2 4365.9 618.6C4292.6 574.1 4209.6 565.4 4126.3 584.5C4077.6 595.7 4057.9 632.8 4018 657.5C3968.8 687.9 3940 660.1 3895.8 640.5C3798.5 597.3 3733.9 665.6 3688.9 743.3C3668.2 779 3656.2 817.6 3628.3 848.3C3594.5 885.5 3564.9 884.3 3518.2 868.6C3477.4 854.9 3435.8 849 3396.6 830.8C3354.9 811.5 3325.8 791.3 3278.9 793.1C3262.6 793.7 3244 797.2 3228.2 794C3203.8 789 3183.9 774.2 3158.2 770.5C3117 764.6 3074.5 769.3 3033.7 757C2996.7 745.9 2966 719.2 2931.7 701.7C2889.7 680.3 2853.8 670.2 2819.6 635.9C2790.1 606.4 2765.7 577.5 2733.4 550.7C2702.6 525.1 2673.2 499.3 2648.4 467.6C2593.1 396.8 2554.8 316.9 2494.7 249.4C2439.8 187.8 2410.4 108.6 2353.5 49.1C2289.5 -17.9 2197 -13.6 2135.9 55.8C2106.3 89.4 2085.2 129.3 2053.3 160.4C2023.9 189 1980.9 206.4 1942.8 221.9C1907.9 236.1 1856.7 256.9 1819.3 245.6C1776.8 232.8 1753.5 187.4 1708.4 179.1C1669.1 171.8 1622.3 184.6 1580.4 181.2C1537.1 177.7 1495.3 164.3 1452.5 157C1405.6 149 1371.9 152 1333.4 182.7C1304.2 205.8 1280.9 250.9 1242 261.1C1205.3 270.7 1154 252.6 1116.3 252.8C1077.4 253 1028.5 256.4 991.2 267.5C813.8 320.2 839.8 601.2 656 644.8C610.2 655.7 575.3 630.5 534.9 615.4C491.1 599 453.9 611 413.1 585.1C341 539.4 270.7 496.4 205.9 441.4C175.7 415.7 132.2 382.8 92.2 376.3C55.4 370.3 3.80005 379.5 -32.2 390.6C-49.3 395.9 -70.8 407.6 -87.6 406.3C-109.9 404.6 -130.5 386.8 -146.3 372.9C-160 360.8 -185.1 337.8 -204.9 338.9C-220 339.7 -240.7 360.6 -253.9 370.7C-311.1 414.6 -402.6 485.5 -479 477.1C-528.1 471.7 -548.3 429 -580 396.9C-614.7 361.8 -646.4 360 -689.2 341.1C-728.3 323.8 -764 293.5 -807.9 305.7C-850.2 317.4 -878.3 357.8 -903.8 391.6C-954.3 458.7 -1000.2 531.1 -1040 605.1C-1060.4 643 -1077.7 681.5 -1101.6 717.3C-1126 753.8 -1156.1 781.2 -1185.5 813.5C-1200.6 830.1 -1214.5 848.1 -1235.6 857.6C-1260.6 868.9 -1266.7 862.2 -1290.8 840.9C-1323.2 812.4 -1347.4 773.7 -1371.6 738.4C-1421 666.2 -1457.1 607.8 -1537.2 567.9" stroke="#858585" stroke-width="0.9" stroke-linecap="round"/>
</g>
</svg>
