<svg width="1920" height="1290" viewBox="0 0 1920 1290" fill="none" xmlns="http://www.w3.org/2000/svg">
<g style="mix-blend-mode:screen">
<path d="M6753.2 811.4C6727.2 802.2 6698.2 800 6673.1 790.9C6651.7 783.2 6631.6 762.4 6614.6 747C6576.8 712.8 6547 672.7 6519.3 630.2C6490.8 586.5 6471.4 531 6429.4 498.3C6383.8 462.9 6342.4 489.1 6316.2 533.8C6289.2 579.9 6264.9 627.8 6232.7 670.6C6220.1 687.4 6201.4 715.4 6179.5 721.5C6159.6 727 6141.1 713.5 6123.1 699.3C6100.5 681.5 6087.4 659.1 6058.2 650.4C6033.5 643 6010.3 652.7 5983.8 650.2C5943.9 646.4 5887.5 614.3 5854.2 590C5766.7 526.2 5758.8 405.4 5679.6 335.9C5598.7 265 5502 396.6 5454.7 456.7C5424.7 494.7 5400 545.1 5357 569.2C5337.6 580.1 5314 591.2 5294.3 581C5274.5 570.7 5259.5 543.1 5249.3 523.8C5228.9 485.5 5208.7 414.6 5173.1 386.7C5154.4 372 5115.5 369.4 5093.2 363.3C5068.3 356.4 5046.3 346.7 5023.5 335.1C4973 309.5 4941.4 299.6 4903.9 348.9C4872.7 390 4847 434 4824.8 480.6C4780.5 573.6 4735.6 663.9 4704.2 762.3C4673.6 858.2 4647.3 961.7 4596.9 1049.5C4573.5 1090.1 4531.8 1156.8 4479.2 1159.5C4437.3 1161.7 4387 1125.1 4350.1 1108.2C4311.8 1090.6 4262.9 1059.5 4223.1 1049.7C4166 1035.7 4135 1098.2 4103.7 1135.4C4072.7 1172.2 4038.8 1216.1 3994.8 1236.4C3958.6 1253 3897.8 1290.9 3857.3 1289.2C3762.2 1285.3 3727.3 1094.8 3625.2 1170.6C3588.2 1198.1 3553.2 1242.2 3510.9 1259C3459.7 1279.4 3414.1 1239.2 3371.8 1215.1C3325.9 1188.9 3284 1164.6 3230.8 1177.4C3204.7 1183.7 3189.2 1190.6 3168.6 1206.3C3151.7 1219.1 3126.8 1253.5 3108.2 1258.7C3033.9 1279.5 2959.9 1086.3 2922.7 1040.7C2890.1 1000.7 2846.7 977.3 2814.9 935.3C2784.8 895.5 2761.4 857.9 2727.1 821.1C2651.3 739.6 2606.2 656.8 2568.3 552.4C2534.3 458.6 2505.1 364.1 2460.8 274.3C2439.3 230.7 2418.4 186.2 2392.3 145.2C2360.8 95.6 2325.9 74.6 2275.1 46.7C2237.3 25.9 2189.1 -9 2145.3 4.9C2096.9 20.3 2067.7 82.6 2041.7 122.3C1997.2 190 1938.9 321.1 1847.6 324.1C1796.6 325.8 1750.3 290.5 1698 290.2C1670.5 290 1652.9 296.8 1626 285.9C1603.2 276.7 1584.1 260.6 1561.9 249.8C1478.6 209.4 1361.5 256.8 1286.7 298.8C1238 326.1 1206.1 342 1149.3 345.8C1096.3 349.3 1048.5 330.8 1007.5 371C938.6 438.4 902.1 545.1 847.6 624.7C818.1 667.7 789.9 711.1 766.1 757.5C745.7 797.2 725.2 851.6 692.3 880.9C604.9 958.7 502.6 785 468.8 723.5C457.1 702.3 446 685.2 429.6 667.1C407 642.1 398.3 647.6 364.2 645.3C309.2 641.5 268.6 605.2 216.7 596.2C127 580.6 65.1 789.4 -11.1 652.6C-37.3 605.5 -52.3 549.3 -82.2 504.5C-91.4 490.7 -112.2 463.9 -126.8 457.7C-160.5 443.2 -179.9 467.1 -200.4 489.5C-216.7 507.2 -228.1 529.6 -244.7 546.9C-259.8 562.6 -280.1 572.5 -297.4 586C-332 613 -368.7 679.9 -418.5 662.5C-461.6 647.4 -497.8 586.2 -521 549.9C-546.9 509.3 -563.6 464.6 -585 421.6C-607.2 376.8 -631 317.8 -680.2 298.6C-738.4 275.8 -779.7 306.2 -815 350.1C-846.2 388.9 -875.6 429.1 -906 468.6C-933.4 504.3 -969.5 537 -995.1 573.3C-1053.9 656.7 -1076.6 768.7 -1104.4 865.4C-1131.9 961 -1159.9 1068 -1210.9 1154.2C-1217.2 1164.8 -1243.2 1208.3 -1253.9 1211.1C-1279.8 1218 -1306.4 1181.6 -1318.8 1166.1C-1349.9 1127.4 -1372.4 1082.6 -1393.8 1038C-1438.1 945.4 -1477.4 853.6 -1536.5 769.3" stroke="#1A1919" stroke-width="1.5" stroke-linecap="round"/>
</g>
</svg>
