<svg width="1920" height="1605" viewBox="0 0 1920 1605" fill="none" xmlns="http://www.w3.org/2000/svg">
<g style="mix-blend-mode:screen">
<path d="M6749.7 832.3C6685.3 857.4 6631.2 902.8 6570.3 847.8C6528.6 810.1 6460.5 719.6 6400.6 748.2C6369.3 763.2 6350.5 796.5 6331.1 823.9C6305.8 859.5 6294.4 879.4 6254.9 898.8C6224.1 913.9 6201.4 922.5 6169.2 904.6C6142.9 889.9 6107.8 849.9 6087 827.9C6059.9 799.2 6048.2 772.5 6008.3 761.1C5971.4 750.5 5952.7 749.3 5918.7 727.5C5890.1 709.2 5861.8 690.6 5834.5 670.5C5799.6 644.9 5785.1 624 5763.1 586.7C5738.2 544.5 5699.1 445.2 5651.9 433.4C5616.5 424.6 5596.3 460.6 5564.7 472.1C5527.9 485.5 5496.9 487.2 5468.4 517.1C5415.8 572.1 5337 891.5 5223.1 772.9C5173.7 721.4 5163.5 660.1 5093.1 627C5048.4 605.9 4968.8 554 4921.5 582.5C4865.2 616.5 4838.2 715.9 4808.9 771.6C4774.7 836.7 4747 898.8 4724.1 968.9C4680 1103.7 4657.3 1245.4 4603.3 1376.9C4581.6 1429.8 4546 1512 4485.6 1529.9C4433.1 1545.5 4356 1496 4303.9 1480.7C4269.1 1470.5 4232.3 1455.9 4196.9 1449C4151.1 1440.1 4137.8 1462.6 4105.1 1489.7C4079.6 1511 4046.7 1523.6 4021.7 1544.7C3995.3 1567 3975.9 1601.2 3958.7 1630.8C3940.2 1662.6 3919.6 1689.9 3896.9 1718.9C3854 1683.5 3838.3 1651.5 3813.4 1601.2C3790.8 1555.2 3774.7 1509.8 3734.5 1476C3720.5 1464.2 3702.7 1459.1 3687.7 1448.5C3666.9 1433.9 3651.8 1414.8 3629.6 1401.9C3578.4 1372.1 3553.9 1398.9 3520.1 1438C3481.9 1482.2 3460.6 1516.6 3400.1 1489.7C3380.6 1481 3365.3 1469.8 3344.6 1468.6C3328.5 1467.7 3286.2 1464.1 3272.3 1467.2C3222 1478.7 3200.8 1542.7 3157.7 1563.7C3107.3 1588.2 3084.4 1527.2 3064.6 1487.6C3042.9 1444.1 3025.6 1398.4 3004.5 1354.6C2981.4 1306.6 2950.6 1276.3 2915.5 1236.8C2850.8 1164 2827.8 1066.4 2774.2 987C2750.7 952.3 2712 922.5 2680.8 894.8C2642.5 860.8 2626.4 822.1 2607.3 774C2569.8 679.6 2535.9 583.6 2498.2 489.1C2463.8 402.9 2404.8 332.9 2356.2 254.8C2327.6 208.7 2305.6 159.8 2279 112.6C2264.6 87.1 2226.7 12.8 2195 3.5C2157.5 -7.5 2103.2 60.6 2077.5 81.7C2046.2 107.4 2011.1 137.7 1987.4 170.8C1942.4 233.9 1910.1 385.5 1815.4 381.8C1804.2 381.4 1792.1 373.3 1781 374.1C1767.9 375 1755.7 385.7 1742.7 387.4C1718.6 390.6 1698.1 381.6 1677.7 370.6C1629.9 344.7 1599.7 326.8 1549.4 353.3C1505.6 376.4 1456.2 353.6 1412.1 373.3C1368.8 392.7 1359.1 451.9 1322.8 472.1C1275.9 498.2 1240.1 432.1 1193.8 439.3C1154.2 445.5 1101.6 477.6 1065.3 494.7C974.9 537.3 941.3 632.7 874.4 700.4C838 737.3 813.3 765.2 788.6 811.8C768.8 849 752.6 888.1 733.8 925.9C715.5 962.7 691.2 1034.1 660 1061.2C614.6 1100.5 578.4 1040.5 556 1006.1C530.2 966.3 500.4 929.7 474.2 890.2C451.6 856.1 428 787.3 382.4 783.8C341.6 780.6 303.3 832.2 257.6 837.1C207.1 842.5 173.4 849.7 145.5 894C119.3 935.7 99.8 979.2 79.1 1024C61.2 1014.2 45 1008.7 35.2 992.6C18.4 965.1 14 921.3 4.80005 890.3C-9.79995 841.1 -20.3 789.9 -37.7 741.8C-51.2 704.4 -71 639.9 -120.8 661.7C-157.8 677.9 -183.2 732.6 -216 756.7C-236.4 771.7 -258.2 782.9 -278 798.9C-296.6 813.9 -313.2 835.4 -333.1 847.9C-391.1 884.4 -421.7 841.8 -449.1 795.9C-497.3 715 -537.9 631.1 -580.5 547.4C-595.7 517.6 -628.7 436.7 -658.3 418.7C-700 393.4 -750.8 448.1 -785.3 466.8C-809.3 479.8 -830.8 484.2 -855.4 493.8C-876.4 502 -892.8 518.5 -909.5 534.5C-942.6 566.1 -971.8 602.1 -993.1 642.9C-1089 826.9 -1119.5 1038 -1203.4 1227.1C-1223.9 1273.2 -1253.6 1326 -1306.5 1293.3C-1350.7 1265.9 -1370.8 1205.8 -1392.4 1160.6C-1441.4 1058.2 -1485.1 953.6 -1534.3 851.3" stroke="#858585" stroke-width="4.2" stroke-linecap="round"/>
</g>
</svg>
