<svg width="1920" height="695" viewBox="0 0 1920 695" fill="none" xmlns="http://www.w3.org/2000/svg">
<g style="mix-blend-mode:screen">
<path d="M6754.4 507.8C6719.9 492.3 6685.7 478.1 6657.4 452.9C6628.6 427.2 6605.6 396.3 6581.7 366.1C6556.5 334.2 6532 299.2 6499.3 274.3C6462 245.9 6420 246 6379.6 225.7C6340.6 206.1 6319.3 177.1 6272.4 190.7C6233 202.2 6205.7 241.1 6176.5 268.5C6149 294.3 6119.9 318.3 6092.4 344.1C6068.6 366.5 6036.5 404.8 6005 415.9C5987.1 422.2 5962.7 417 5944.3 415.5C5923.4 413.8 5904.5 417.7 5883.8 417.1C5843.6 415.9 5812.2 395.9 5781.8 371.8C5749.2 346 5720.3 324.9 5676.9 325.5C5659.6 325.7 5642.7 330.7 5625.4 330C5603.3 329.1 5581.9 319.4 5560.1 318.1C5518.3 315.6 5496.8 339.5 5464.7 362.1C5421.8 392.3 5395.2 390.3 5360 351.3C5305.1 290.5 5261.1 229.7 5183.4 195.5C5147.9 179.9 5108.7 166.9 5071.5 176.8C5051.3 182.2 5032.8 195.2 5012.6 199.7C4995.1 203.7 4975.6 200.3 4957.5 202.9C4879.7 214.3 4810.9 266.4 4762.9 325.9C4712.8 388 4677.7 460.1 4591 466.5C4550.4 469.5 4512.2 476.8 4472.1 483.7C4424.8 491.9 4396.7 476.6 4352 463.3C4280.2 442 4193.9 433.1 4120.9 446.1C4041.7 460.2 3971.3 478 3890 474.9C3849 473.4 3807.7 469.1 3771.1 491.9C3739.5 511.5 3710.2 549.5 3687.7 578.6C3663.8 609.4 3645.2 646.2 3614.4 671.3C3583.7 696.2 3548.4 692.8 3510 691.8C3471.4 690.7 3432.5 690.5 3394.8 681.1C3355.7 671.3 3322.5 646.5 3284 636.5C3249.3 627.5 3209.8 638.2 3173 632.8C3134.2 627.2 3096.3 631.1 3057.4 623.2C2985.8 608.7 2912.2 563.9 2848.6 530.3C2781 494.6 2711.7 435.5 2660.2 379.5C2607.3 321.9 2570.2 252.7 2518.7 194.2C2489.7 161.2 2453.7 142.4 2421.7 113.4C2391.5 86.1 2368.2 52.6 2334.6 29.2C2265.3 -19.2 2189.2 -0.399994 2128.3 53.5C2098.5 79.8 2075.4 114.7 2040.7 135.2C2006.9 155.2 1967.9 155.1 1929.9 163.6C1892.5 171.9 1852.8 191.6 1814.4 187.5C1769.4 182.7 1742.3 143.8 1705.6 123.1C1631.2 81.1 1555.3 142.1 1479.6 145.9C1437.8 148 1404.4 135.9 1363.8 153.1C1322 170.7 1292.7 192.6 1244.7 190.8C1201.8 189.2 1174.7 185.6 1133.6 201.8C1096.4 216.5 1062.5 213.6 1023.6 217.2C938.9 225 873.4 267.6 822.1 333.2C775.7 392.6 734.5 480 652.4 492.2C613.7 498 572.4 489 533.4 491.6C492.1 494.4 453.7 510.3 412 500.7C336.8 483.4 266.4 422.4 211 372.4C152.6 319.7 76.7001 289.8 -1.69995 285C-48.4 282.1 -72.2 311.7 -115.6 316.1C-150.6 319.6 -182.9 287.4 -219.6 289.8C-260 292.4 -293.6 324.6 -331.5 336.8C-368.1 348.6 -398.6 353.8 -430.3 377.6C-470.5 407.9 -495.9 423.3 -539.3 386.7C-567.9 362.6 -586.4 325.7 -622.3 309.4C-661 291.8 -700.6 313.7 -740.8 306.1C-786.9 297.4 -810.2 288 -851.5 318C-910.8 361.1 -968.7 427.2 -1016.4 483C-1069.2 544.7 -1108.4 610.5 -1176.1 657.4C-1210.8 681.4 -1247.2 706.5 -1289.8 686.2C-1322.6 670.6 -1349.6 634.1 -1373.1 607.4C-1425 548.2 -1463.1 485.2 -1537.7 454" stroke="#858585" stroke-width="2" stroke-linecap="round"/>
</g>
</svg>
