<svg width="1920" height="559" viewBox="0 0 1920 559" fill="none" xmlns="http://www.w3.org/2000/svg">
<g style="mix-blend-mode:screen">
<path d="M-1537.3 345.9C-1495.9 366.5 -1484.4 385.2 -1455.7 421.8C-1445.4 434.9 -1430.7 459.8 -1416.5 468C-1401.7 476.6 -1382.3 472.8 -1367.4 482.3C-1340.4 499.6 -1313.4 559.5 -1284 556.7C-1270.5 555.5 -1247.6 537.3 -1234 531C-1210.2 520.1 -1193 527.4 -1170.2 520.1C-1153.4 514.7 -1141.6 493.2 -1126.8 482.9C-1113 473.3 -1095.8 467.9 -1080.9 460C-1044.8 440.9 -1019.6 415.1 -989.3 388.3C-957.5 360.3 -922 340.9 -890.5 312.9C-862.7 288.2 -821 292.8 -783.5 291.7C-759.2 291 -749.9 291 -728.1 281.9C-711.2 274.9 -690.4 254.3 -673.7 251C-654.1 247.1 -602.7 279.6 -580.9 292.6C-549.8 311.1 -510.9 350 -470.3 344.5C-437.3 340.1 -419.4 285.2 -388.7 265.2C-362.6 248.2 -368.1 265.7 -337.2 265.7C-321.2 265.7 -305.5 250.4 -289.4 246.4C-271.4 242 -248.8 242.7 -230.3 244.3C-208.1 246.3 -191.4 260.8 -170.7 263.2C-138.1 267.1 -94 241.6 -64.4 229.1C-20.3 210.5 -1.80005 216.7 40.7 235C61 243.8 79.5 249.6 101.1 252.9C118.7 255.6 146 251.2 161.7 257.6C194.4 270.9 216.4 326.4 241.8 349.2C265.8 370.8 306.9 383 338.5 380.9C375.8 378.4 363.8 379.5 398.3 395.2C419.4 404.8 427.7 397.6 452 396.2C470.4 395.1 484.8 399.8 501.7 393.9C528.2 384.6 535.8 372.3 565.9 372.5C608.5 372.8 628.7 377.8 667.9 355.4C736.8 316 783.2 235.5 859.9 211.1C876 206 893.9 212.2 909.6 207.4C927.7 201.9 939.3 182.4 958.1 178.8C997.7 171.2 1036.3 197.6 1076.9 196.3C1124.8 194.8 1142 163.6 1179.3 138.5C1219.7 111.3 1241 150.4 1282.7 157C1327.9 164.1 1346 119.9 1386.4 120.6C1406.8 120.9 1427 131.4 1446.9 131.2C1464.4 131 1482.9 122.9 1500.6 120.8C1529.5 117.5 1530.2 120.2 1548.6 97.1C1564.3 77.3 1574.8 62.7 1598.1 51.6C1632.4 35.1 1668.5 40.3 1698.3 66.8C1713.2 80 1720.3 108.9 1737.2 119.1C1749.1 126.3 1775.2 122 1790.5 123.6C1834 128.1 1864.9 119.5 1907.1 112C1928.3 108.2 1945.7 105.1 1966.2 99.8C1996.4 91.9 1993 103.9 2023.1 107.8C2058.2 112.3 2094 82.7 2123.5 65.6C2160.1 44.4 2178.2 2.70001 2219.8 3.50001C2235.8 3.80001 2260.9 0.200015 2275.4 5.00001C2291.5 10.4 2303.1 28.9 2318.3 36.9C2356 56.6 2400.8 58 2439.4 71.3C2484.2 86.7 2493.6 130.5 2524.1 160.5C2550 186 2581.6 205.6 2608.1 232.4C2636.8 261.3 2666.4 273 2696.2 296.9C2710.4 308.3 2719.8 326.2 2734.7 336.5C2752.4 348.7 2770.4 352.5 2787 366.8C2820.8 396 2852.1 405.8 2890.1 427.8C2905.9 437 2914.2 453.6 2929.1 464C2950.1 478.7 2954.2 465.8 2979.8 470.5C3016.9 477.5 3048.9 512.2 3090.1 517.5C3126.6 522.2 3160.9 497 3195.6 484.4C3217.7 476.4 3233.1 471.2 3255.9 479.1C3279.9 487.4 3282.1 503.1 3302.5 518.6C3323.2 534.4 3325.2 524.9 3353.2 522.7C3371.2 521.3 3389.7 524.2 3407 528.4C3429.3 533.9 3445.8 536.3 3468.4 539.4C3481.9 541.2 3510.2 558.9 3520.9 556.2C3536.3 552.2 3547.3 515.4 3560.8 506C3574.4 496.5 3595.8 494.7 3611.7 488.1C3650.7 472.1 3675.8 442 3706.9 414.5C3720.7 402.3 3732.5 390.4 3744.8 376.7C3766.6 352.2 3767.4 350.5 3799.5 347.9C3816.6 346.5 3834.8 340.6 3851.7 340.9C3878.4 341.5 3885.2 350.2 3909.4 339.6C3948 322.7 3973.5 301.6 4018.4 313.1C4036.1 317.6 4051.8 327.9 4069.7 332.2C4101.6 339.8 4101.1 329.1 4129.5 321.8C4158.5 314.4 4198.6 339 4231.6 344.5C4252.4 348 4271.5 353 4291.9 357.1C4315.4 361.8 4325.4 351.3 4349.1 349.2C4389.1 345.6 4433 383.8 4470.5 376.4C4487.4 373 4496.6 343.5 4513.1 339.2C4527.3 335.5 4550.5 346.5 4564.6 353.2C4590 365.3 4591.4 373.3 4618.7 368.1C4638.3 364.4 4663.3 354.9 4678.3 341.7C4692.8 328.9 4699 307.2 4712.6 293.4C4728.7 277.2 4738.6 277.5 4762.7 271.3C4805.8 260.4 4840.2 251.7 4873.6 222.5C4906.1 194.1 4923.8 173.9 4969 179.6C4987.9 182 5001.2 188.9 5018.7 184C5036.6 179 5056.3 162.4 5072.3 152.7C5086.6 144 5114.1 124.1 5131.1 125.6C5146.1 126.9 5161.3 147 5175 155.3C5209 176 5246.4 174.1 5279.9 192.7C5313.8 211.6 5329.8 247.1 5353.8 277.3C5370 297.8 5377.1 310.7 5400.7 316.4C5419.4 320.9 5446.6 318.3 5464.7 313.2C5502.9 302.3 5526.6 274.6 5566.7 290.9C5593 301.6 5589.3 306.7 5617 294.6C5632.7 287.8 5656.5 268.3 5672.1 267C5695 265.1 5751.9 291.9 5774.1 302.7C5791.1 311 5807.6 318.8 5824.8 326.7C5843.6 335.3 5858.3 352.3 5876.6 360.2C5924.5 380.8 5932.2 341.6 5965.3 318.3C5991.2 300.1 6033.2 286.3 6063.3 278.5C6105.6 267.5 6126.9 230.6 6161 203.1C6175.5 191.4 6191.3 182.1 6206.4 171.1C6217.9 162.7 6239 135.3 6251.6 134C6276.6 131.2 6329.4 168.1 6356.7 175.2C6394.2 185 6432.1 172.1 6467.1 193.5C6484.3 204 6494.9 219.4 6513.3 227.5C6541.4 240 6545.6 238.5 6565.4 263.9C6585.6 290 6606.3 335.7 6632.2 353.1C6655 368.4 6673.6 361.8 6696.4 355.9C6717.1 350.6 6731.6 352.7 6753.6 355.4" stroke="#858585" stroke-width="3.3" stroke-linecap="round"/>
</g>
</svg>
