<svg width="1920" height="613" viewBox="0 0 1920 613" fill="none" xmlns="http://www.w3.org/2000/svg">
<g style="mix-blend-mode:screen">
<path d="M6753.8 421.6C6712.9 413.3 6674.3 413.9 6641.1 387C6610.4 362.1 6587.1 327.7 6561.7 297.1C6537.4 267.8 6505.7 242.6 6472.4 223.6C6439.4 204.7 6403.5 205.5 6368.7 193.3C6332.6 180.6 6294.2 154 6253.6 166.9C6223.8 176.4 6192.1 212.6 6168.6 232.4C6109.7 282.2 6050.4 339.6 5975.9 363.2C5938.2 375.2 5906.1 391.1 5866.8 380.7C5826.8 370.1 5794.8 343.4 5759.6 323.4C5727.9 305.3 5694.1 290.9 5658.4 299.1C5637.3 304 5621 311.6 5598.4 310.3C5581 309.3 5564 300.8 5546.8 300.5C5504.2 299.8 5477.5 332.8 5438.4 341.9C5395 352 5371.4 325.8 5344 294.5C5318.9 265.7 5301 236.9 5268.6 215.6C5240.5 197.1 5206.5 182.7 5175.5 168.8C5137.7 151.9 5106 144.1 5066.8 160.2C5049.9 167.1 5032.4 178.7 5015.2 183.6C4999.3 188.1 4982.2 184.8 4965.6 186.6C4899.9 193.8 4812.7 251.7 4762.4 293.6C4732.2 318.8 4710.7 353.1 4681.1 378.1C4648.3 405.8 4617.2 407 4576.9 403.4C4534.8 399.6 4511.1 414.7 4471.8 422.1C4430.2 430 4392.1 405.9 4351.9 400.8C4314.5 396 4277.8 396.4 4240.1 389.3C4203.7 382.4 4167.5 372.1 4130.7 378.2C4091 384.8 4056.2 382.1 4015.6 382.9C3973.4 383.8 3936.7 398.3 3895.9 404.1C3858.2 409.4 3821.1 397.7 3784.3 413.7C3749.3 428.9 3723 463.5 3696.7 491.4C3643.1 548.4 3591.8 599.8 3509.9 609.7C3425.3 620 3355.3 587.9 3279.8 558.9C3213.4 533.4 3131.5 574.4 3061.1 558.3C2985.9 541 2922.3 500.8 2854.3 467.5C2784 433.1 2719.7 378 2662.3 325.5C2607.3 275.1 2564 214.7 2514.2 159.5C2486 128.2 2457.2 110.5 2421.5 88.8C2388.5 68.7 2360 43 2326.3 23.9C2245.7 -21.7 2188.4 5.99997 2119.3 57.9C2091.9 78.5 2063.6 110.5 2029.3 119.9C1993.7 129.7 1951.9 126.5 1914.6 136.2C1878.1 145.7 1843 156.9 1805.3 151.5C1760.3 145.1 1738.4 118 1703.5 93.9C1621.3 37.3 1567.7 116.9 1489.9 131C1450.3 138.2 1411.5 123.7 1372.6 136.2C1335.4 148.1 1313.6 167.5 1272 163.7C1227.3 159.6 1200.6 143.7 1157.3 166.2C1114.9 188.3 1094.9 202 1044.7 199.6C968.7 195.9 892.4 215.7 832.8 265.7C776.3 313.2 739.9 388.1 667.5 414.9C633.3 427.5 596.4 424.1 560.5 428C522.6 432.2 486.9 445.2 448.6 447.8C379.3 452.4 290.9 408.6 238.7 363.7C205.3 335 180.1 303.4 137.4 288.1C101.8 275.4 65 262.9 28.5 253.6C-15.5 242.4 -43 246 -84 263.1C-124.7 280.1 -146.1 278.5 -188.8 269.1C-229.5 260.1 -258.7 265.8 -297.8 280.5C-336 294.9 -375.2 296.6 -409.2 320.1C-437.7 339.8 -462.1 377.6 -502.1 371.3C-535.8 365.9 -565.9 327.8 -591.2 308.3C-608.6 294.9 -623.7 283.9 -644.7 277.9C-671.1 270.4 -678.7 278.1 -705.4 285.8C-745.2 297.3 -781.6 284.4 -820.6 294.7C-889 312.8 -947.8 380.4 -999.2 427.2C-1054.3 477.5 -1103.1 544.8 -1169.9 580.3C-1199.1 595.8 -1252.1 618.8 -1285.6 610.1C-1320.5 601.1 -1347.8 562 -1374.2 538.3C-1428.7 489.4 -1472.4 427.3 -1537.5 392.8" stroke="#858585" stroke-width="1.3" stroke-linecap="round"/>
</g>
</svg>
