<svg width="194" height="165" viewBox="0 0 194 165" fill="none" xmlns="http://www.w3.org/2000/svg">
<mask id="mask0_2016_86" style="mask-type:luminance" maskUnits="userSpaceOnUse" x="0" y="0" width="194" height="165">
<path d="M193.268 0.585884H0.515289V164.627H193.268V0.585884Z" fill="white"/>
</mask>
<g mask="url(#mask0_2016_86)">
<path d="M205.667 -25.6667H-4061V2641H205.667V-25.6667Z" stroke="#7FC8CD" stroke-width="0.213333" stroke-miterlimit="2" stroke-linejoin="round"/>
<mask id="mask1_2016_86" style="mask-type:luminance" maskUnits="userSpaceOnUse" x="0" y="0" width="194" height="165">
<path d="M193.268 0.585884H0.515381V164.627H193.268V0.585884Z" fill="white"/>
</mask>
<g mask="url(#mask1_2016_86)">
<path d="M115.02 147.56V120.807C123.477 120.34 129.88 118.793 134.223 116.17C138.57 113.55 141.623 109.293 143.387 103.407C145.147 97.52 146.03 89.0967 146.03 78.1367H115.02V14.3133H178.623V74.99C178.623 100.053 173.25 118.417 162.503 130.073C151.753 141.73 135.927 147.56 115.02 147.56ZM19.0001 147.56V120.807C27.4568 120.34 33.8568 118.853 38.2034 116.347C42.5501 113.84 45.6934 109.583 47.6301 103.58C49.5668 97.5767 50.5368 89.0967 50.5368 78.1367H19.0001V14.3133H82.9534V74.99C82.9534 100.053 77.6101 118.417 66.9234 130.073C56.2334 141.73 40.2601 147.56 19.0001 147.56Z" fill="#7FC8CD" stroke="#7FC8CD" stroke-width="0.213333" stroke-miterlimit="2" stroke-linejoin="round"/>
</g>
</g>
</svg>
