<svg width="143" height="146" viewBox="0 0 143 146" fill="none" xmlns="http://www.w3.org/2000/svg">
<path d="M55.4631 146H0.917614L25.0653 0.54545H77.9773C92.75 0.54545 105.061 3.55208 114.909 9.56534C124.805 15.5312 131.789 24.1013 135.861 35.2756C139.98 46.4025 140.761 59.66 138.205 75.0483C135.742 89.9157 130.795 102.652 123.361 113.259C115.974 123.865 106.505 131.985 94.9517 137.619C83.3987 143.206 70.2358 146 55.4631 146ZM40.9744 116.028H57.6648C65.8087 116.028 73.0057 114.561 79.2557 111.625C85.553 108.642 90.7614 103.884 94.8807 97.3494C99 90.768 101.936 82.1269 103.688 71.4261C105.392 61.1989 105.321 53.1259 103.474 47.2074C101.675 41.2415 98.1714 36.9801 92.9631 34.4233C87.8021 31.8191 81.0549 30.517 72.7216 30.517H55.25L40.9744 116.028Z" fill="#7FC8CB"/>
</svg>
